<svg xmlns="http://www.w3.org/2000/svg" viewBox="0 0 12.58 11.33"><g id="b52f69c5-8727-47d0-a49c-1b6012573d3c" data-name="Laag 2"><g id="bbbec1ee-27e7-4725-92c9-989051ab83c5" data-name="Laag 1"><path d="M11,0a1.42,1.42,0,0,1,.61.13,1.56,1.56,0,0,1,.5.33,1.63,1.63,0,0,1,.34.51,1.38,1.38,0,0,1,.13.6v5.5a1.63,1.63,0,0,1-.12.62,1.92,1.92,0,0,1-.34.5,1.56,1.56,0,0,1-.5.33,1.44,1.44,0,0,1-.62.13H4.25L1.57,11.33V8.65A1.55,1.55,0,0,1,1,8.52a1.7,1.7,0,0,1-.5-.34,1.67,1.67,0,0,1-.33-.5A1.39,1.39,0,0,1,0,7.07V1.57A1.38,1.38,0,0,1,.13,1,1.47,1.47,0,0,1,.47.46,1.56,1.56,0,0,1,1,.13,1.39,1.39,0,0,1,1.58,0Zm.79,7.07V1.57a.81.81,0,0,0-.06-.31A1,1,0,0,0,11.56,1a1.1,1.1,0,0,0-.25-.17A.81.81,0,0,0,11,.78H1.58a.78.78,0,0,0-.31.06A.92.92,0,0,0,1,1a1,1,0,0,0-.17.25.81.81,0,0,0-.06.31v5.5a.81.81,0,0,0,.06.31A.72.72,0,0,0,1,7.63a.9.9,0,0,0,.26.17.78.78,0,0,0,.31.06h.78V9.43L3.93,7.86H11a.81.81,0,0,0,.31-.06.85.85,0,0,0,.25-.17.74.74,0,0,0,.17-.25A.81.81,0,0,0,11.79,7.07ZM3.54,3.54a.73.73,0,0,1,.3.06.62.62,0,0,1,.25.17A.81.81,0,0,1,4.26,4a.82.82,0,0,1,.07.31.82.82,0,0,1-.07.31,1,1,0,0,1-.17.25A.72.72,0,0,1,3.84,5a.6.6,0,0,1-.3.07A.67.67,0,0,1,3.23,5,.82.82,0,0,1,3,4.88a1.38,1.38,0,0,1-.17-.25.83.83,0,0,1,0-.62A1,1,0,0,1,3,3.77a.7.7,0,0,1,.25-.17A.81.81,0,0,1,3.54,3.54Zm2.75,0a.81.81,0,0,1,.31.06.66.66,0,0,1,.24.17A.66.66,0,0,1,7,4a.72.72,0,0,1,0,.62.79.79,0,0,1-.17.25A.78.78,0,0,1,6.6,5,.72.72,0,0,1,6,5a1,1,0,0,1-.25-.16,1.38,1.38,0,0,1-.17-.25.83.83,0,0,1,0-.62,1,1,0,0,1,.17-.24A.79.79,0,0,1,6,3.6.81.81,0,0,1,6.29,3.54ZM9,3.54a.81.81,0,0,1,.31.06.66.66,0,0,1,.24.17A.66.66,0,0,1,9.76,4a.72.72,0,0,1,0,.62.79.79,0,0,1-.17.25A.78.78,0,0,1,9.35,5a.72.72,0,0,1-.62,0,1,1,0,0,1-.25-.16,1,1,0,0,1-.16-.25.72.72,0,0,1,0-.62.78.78,0,0,1,.16-.24.79.79,0,0,1,.25-.17A.81.81,0,0,1,9,3.54Z" style="fill:#1d1d1b"/></g></g></svg>