<svg xmlns="http://www.w3.org/2000/svg" viewBox="0 0 97.27 17.77"><g id="b044401b-7e7a-4b04-8523-24a1c5e66b4e" data-name="Laag 2"><g id="aa495ff8-3328-47b1-bc2c-8f593e94956f" data-name="Laag 1"><path d="M9.34,0l2.31,6.64,7,.15L13.08,11l2,6.73-5.77-4-5.77,4L5.6,11,0,6.79l7-.15ZM26.68,6.64l-7,.15L25.25,11l-2,6.73,5.78-4,5.77,4-2-6.73,5.61-4.25-7-.15L29,0Zm19.65,0-7,.15L44.9,11l-2,6.73,5.77-4,5.78,4-2-6.73L58,6.79l-7-.15L48.63,0ZM66,6.64l-7,.15L64.54,11l-2,6.73,5.77-4,5.77,4L72,11l5.6-4.25-7-.15L68.28,0Zm19.65,0-7,.15L84.19,11l-2,6.73,5.78-4,5.77,4-2-6.73,5.61-4.25-7-.15L87.93,0Z" style="fill:#1d1d1b"/></g></g></svg>